solid OpenSCAD_Model
  facet normal 0 0 -1
    outer loop
      vertex 19.5 -32 -5.48
      vertex 18.5 -31 -5.48
      vertex 19.5 2.60001 -5.48
    endloop
  endfacet
  facet normal 0 0 -1
    outer loop
      vertex 19.5 -32 -5.48
      vertex 15.7 -31 -5.48
      vertex 18.5 -31 -5.48
    endloop
  endfacet
  facet normal 0 0 -1
    outer loop
      vertex 15.7 -31 -5.48
      vertex 2.79999 -31 -5.48
      vertex 15.7 2.5 -5.48
    endloop
  endfacet
  facet normal 0 0 -1
    outer loop
      vertex 19.5 -32 -5.48
      vertex 2.79999 -31 -5.48
      vertex 15.7 -31 -5.48
    endloop
  endfacet
  facet normal 0 0 -1
    outer loop
      vertex -1 -32 -5.48
      vertex 2.79999 -31 -5.48
      vertex 19.5 -32 -5.48
    endloop
  endfacet
  facet normal 0 0 -1
    outer loop
      vertex -1 2.60001 -5.48
      vertex 0 -31 -5.48
      vertex -1 -32 -5.48
    endloop
  endfacet
  facet normal -0 0 -1
    outer loop
      vertex 2.79999 -31 -5.48
      vertex -1 -32 -5.48
      vertex 0 -31 -5.48
    endloop
  endfacet
  facet normal 0 0 -1
    outer loop
      vertex 18.5 2.5 -5.48
      vertex 19.5 2.60001 -5.48
      vertex 18.5 -31 -5.48
    endloop
  endfacet
  facet normal 0 0 -1
    outer loop
      vertex 15.7 2.5 -5.48
      vertex 19.5 2.60001 -5.48
      vertex 18.5 2.5 -5.48
    endloop
  endfacet
  facet normal 0 0 -1
    outer loop
      vertex 2.79999 2.5 -5.48
      vertex 15.7 2.5 -5.48
      vertex 2.79999 -31 -5.48
    endloop
  endfacet
  facet normal 0 0 -1
    outer loop
      vertex 2.79999 2.5 -5.48
      vertex 19.5 2.60001 -5.48
      vertex 15.7 2.5 -5.48
    endloop
  endfacet
  facet normal 0 0 -1
    outer loop
      vertex -1 2.60001 -5.48
      vertex 2.79999 2.5 -5.48
      vertex 0 2.5 -5.48
    endloop
  endfacet
  facet normal 0 0 -1
    outer loop
      vertex 2.79999 2.5 -5.48
      vertex -1 2.60001 -5.48
      vertex 19.5 2.60001 -5.48
    endloop
  endfacet
  facet normal 0 0 -1
    outer loop
      vertex 0 -31 -5.48
      vertex -1 2.60001 -5.48
      vertex 0 2.5 -5.48
    endloop
  endfacet
  facet normal 0 -0.709054 -0.705154
    outer loop
      vertex -1 -32 -5.48
      vertex 19.6045 -32.9945 -4.48
      vertex -1.10453 -32.9945 -4.48
    endloop
  endfacet
  facet normal 0 -0.709054 -0.705154
    outer loop
      vertex 19.6045 -32.9945 -4.48
      vertex -1 -32 -5.48
      vertex 19.5 -32 -5.48
    endloop
  endfacet
  facet normal -0.994522 -0.104523 0
    outer loop
      vertex -1.97815 -32.2079 -4.48
      vertex -2 -32 -2.6
      vertex -2 -32 -4.48
    endloop
  endfacet
  facet normal -0.994522 -0.104523 0
    outer loop
      vertex -2 -32 -2.6
      vertex -1.97815 -32.2079 -4.48
      vertex -1.97815 -32.2079 -2.6
    endloop
  endfacet
  facet normal 0 1 0
    outer loop
      vertex 22.6045 4.99452 -1.02
      vertex 13.35 4.99452 -3
      vertex 13.35 4.99452 -1.02
    endloop
  endfacet
  facet normal 0 1 0
    outer loop
      vertex 13.35 4.99452 -3
      vertex 22.6045 4.99452 -12.02
      vertex 5.15 4.99452 -3
    endloop
  endfacet
  facet normal 0 1 -0
    outer loop
      vertex 22.6045 4.99452 -12.02
      vertex 13.35 4.99452 -3
      vertex 22.6045 4.99452 -1.02
    endloop
  endfacet
  facet normal 0 1 -0
    outer loop
      vertex 5.15 4.99452 -3
      vertex -4.10453 4.99452 -1.02
      vertex 5.15 4.99452 -1.02
    endloop
  endfacet
  facet normal 0 1 0
    outer loop
      vertex -4.10453 4.99452 -12.02
      vertex 5.15 4.99452 -3
      vertex 22.6045 4.99452 -12.02
    endloop
  endfacet
  facet normal 0 1 0
    outer loop
      vertex 5.15 4.99452 -3
      vertex -4.10453 4.99452 -12.02
      vertex -4.10453 4.99452 -1.02
    endloop
  endfacet
  facet normal -0.52683 -0.474554 -0.705159
    outer loop
      vertex -1.66913 -32.7431 -4.48
      vertex -1.80902 -32.5878 -4.48
      vertex -1 -32 -5.48
    endloop
  endfacet
  facet normal -0.207611 -0.978211 0
    outer loop
      vertex -1.30902 -32.9511 -4.48
      vertex -1.10453 -32.9945 -2.6
      vertex -1.30902 -32.9511 -2.6
    endloop
  endfacet
  facet normal -0.207611 -0.978211 -0
    outer loop
      vertex -1.10453 -32.9945 -2.6
      vertex -1.30902 -32.9511 -4.48
      vertex -1.10453 -32.9945 -4.48
    endloop
  endfacet
  facet normal 0 -1 0
    outer loop
      vertex -1.10453 -32.9945 -4.48
      vertex 19.6045 -32.9945 -2.6
      vertex -1.10453 -32.9945 -2.6
    endloop
  endfacet
  facet normal 0 -1 -0
    outer loop
      vertex 19.6045 -32.9945 -2.6
      vertex -1.10453 -32.9945 -4.48
      vertex 19.6045 -32.9945 -4.48
    endloop
  endfacet
  facet normal -0.707107 0 -0.707107
    outer loop
      vertex -1 -32 -5.48
      vertex -2 2.60001 -4.48
      vertex -1 2.60001 -5.48
    endloop
  endfacet
  facet normal -0.707107 -0 -0.707107
    outer loop
      vertex -2 2.60001 -4.48
      vertex -1 -32 -5.48
      vertex -2 -32 -4.48
    endloop
  endfacet
  facet normal -0.147205 -0.693593 -0.705166
    outer loop
      vertex -1.10453 -32.9945 -4.48
      vertex -1.30902 -32.9511 -4.48
      vertex -1 -32 -5.48
    endloop
  endfacet
  facet normal 1 -0 0
    outer loop
      vertex 20.5 -32 -2.6
      vertex 20.5 2.60001 -4.48
      vertex 20.5 2.60001 -2.6
    endloop
  endfacet
  facet normal 1 0 0
    outer loop
      vertex 20.5 2.60001 -4.48
      vertex 20.5 -32 -2.6
      vertex 20.5 -32 -4.48
    endloop
  endfacet
  facet normal -0.743009 -0.669282 0
    outer loop
      vertex -1.66913 -32.7431 -4.48
      vertex -1.80902 -32.5878 -2.6
      vertex -1.80902 -32.5878 -4.48
    endloop
  endfacet
  facet normal -0.743009 -0.669282 0
    outer loop
      vertex -1.80902 -32.5878 -2.6
      vertex -1.66913 -32.7431 -4.48
      vertex -1.66913 -32.7431 -2.6
    endloop
  endfacet
  facet normal -1 0 0
    outer loop
      vertex -2 -32 -4.48
      vertex -2 2.60001 -2.6
      vertex -2 2.60001 -4.48
    endloop
  endfacet
  facet normal -1 -0 0
    outer loop
      vertex -2 2.60001 -2.6
      vertex -2 -32 -4.48
      vertex -2 -32 -2.6
    endloop
  endfacet
  facet normal -0.705162 -0.0741116 -0.705162
    outer loop
      vertex -1.97815 -32.2079 -4.48
      vertex -2 -32 -4.48
      vertex -1 -32 -5.48
    endloop
  endfacet
  facet normal -0.61411 -0.354427 -0.70516
    outer loop
      vertex -1.80902 -32.5878 -4.48
      vertex -1.91354 -32.4067 -4.48
      vertex -1 -32 -5.48
    endloop
  endfacet
  facet normal -0.288593 -0.647655 -0.705165
    outer loop
      vertex -1.30902 -32.9511 -4.48
      vertex -1.5 -32.866 -4.48
      vertex -1 -32 -5.48
    endloop
  endfacet
  facet normal 0.416867 -0.573574 -0.705149
    outer loop
      vertex 20 -32.866 -4.48
      vertex 19.5 -32 -5.48
      vertex 20.1691 -32.7431 -4.48
    endloop
  endfacet
  facet normal 0.526818 -0.474577 -0.705152
    outer loop
      vertex 20.1691 -32.7431 -4.48
      vertex 19.5 -32 -5.48
      vertex 20.309 -32.5878 -4.48
    endloop
  endfacet
  facet normal -0.407017 -0.913421 0
    outer loop
      vertex -1.5 -32.866 -4.48
      vertex -1.30902 -32.9511 -2.6
      vertex -1.5 -32.866 -2.6
    endloop
  endfacet
  facet normal -0.407017 -0.913421 -0
    outer loop
      vertex -1.30902 -32.9511 -2.6
      vertex -1.5 -32.866 -4.48
      vertex -1.30902 -32.9511 -4.48
    endloop
  endfacet
  facet normal -0.67433 -0.219157 -0.705159
    outer loop
      vertex -1.91354 -32.4067 -4.48
      vertex -1.97815 -32.2079 -4.48
      vertex -1 -32 -5.48
    endloop
  endfacet
  facet normal -0.866104 -0.499863 0
    outer loop
      vertex -1.80902 -32.5878 -4.48
      vertex -1.91354 -32.4067 -2.6
      vertex -1.91354 -32.4067 -4.48
    endloop
  endfacet
  facet normal -0.866104 -0.499863 0
    outer loop
      vertex -1.91354 -32.4067 -2.6
      vertex -1.80902 -32.5878 -4.48
      vertex -1.80902 -32.5878 -2.6
    endloop
  endfacet
  facet normal 0.614147 -0.354381 -0.70515
    outer loop
      vertex 20.309 -32.5878 -4.48
      vertex 19.5 -32 -5.48
      vertex 20.4135 -32.4067 -4.48
    endloop
  endfacet
  facet normal 0.288568 -0.647667 -0.705164
    outer loop
      vertex 19.809 -32.9511 -4.48
      vertex 19.5 -32 -5.48
      vertex 20 -32.866 -4.48
    endloop
  endfacet
  facet normal -0.587847 -0.808972 0
    outer loop
      vertex -1.66913 -32.7431 -4.48
      vertex -1.5 -32.866 -2.6
      vertex -1.66913 -32.7431 -2.6
    endloop
  endfacet
  facet normal -0.587847 -0.808972 -0
    outer loop
      vertex -1.5 -32.866 -2.6
      vertex -1.66913 -32.7431 -4.48
      vertex -1.5 -32.866 -4.48
    endloop
  endfacet
  facet normal -0.416817 -0.573607 -0.705152
    outer loop
      vertex -1.5 -32.866 -4.48
      vertex -1.66913 -32.7431 -4.48
      vertex -1 -32 -5.48
    endloop
  endfacet
  facet normal 0.406981 -0.913436 0
    outer loop
      vertex 19.809 -32.9511 -4.48
      vertex 20 -32.866 -2.6
      vertex 19.809 -32.9511 -2.6
    endloop
  endfacet
  facet normal 0.406981 -0.913436 0
    outer loop
      vertex 20 -32.866 -2.6
      vertex 19.809 -32.9511 -4.48
      vertex 20 -32.866 -4.48
    endloop
  endfacet
  facet normal 0.742985 -0.669308 0
    outer loop
      vertex 20.1691 -32.7431 -2.6
      vertex 20.309 -32.5878 -4.48
      vertex 20.309 -32.5878 -2.6
    endloop
  endfacet
  facet normal 0.742985 -0.669308 0
    outer loop
      vertex 20.309 -32.5878 -4.48
      vertex 20.1691 -32.7431 -2.6
      vertex 20.1691 -32.7431 -4.48
    endloop
  endfacet
  facet normal 0.994498 -0.104759 0
    outer loop
      vertex 20.4781 -32.2079 -2.6
      vertex 20.5 -32 -4.48
      vertex 20.5 -32 -2.6
    endloop
  endfacet
  facet normal 0.994498 -0.104759 0
    outer loop
      vertex 20.5 -32 -4.48
      vertex 20.4781 -32.2079 -2.6
      vertex 20.4781 -32.2079 -4.48
    endloop
  endfacet
  facet normal 0.951048 -0.309043 0
    outer loop
      vertex 20.4135 -32.4067 -2.6
      vertex 20.4781 -32.2079 -4.48
      vertex 20.4781 -32.2079 -2.6
    endloop
  endfacet
  facet normal 0.951048 -0.309043 0
    outer loop
      vertex 20.4781 -32.2079 -4.48
      vertex 20.4135 -32.4067 -2.6
      vertex 20.4135 -32.4067 -4.48
    endloop
  endfacet
  facet normal -0.951034 -0.309086 0
    outer loop
      vertex -1.91354 -32.4067 -4.48
      vertex -1.97815 -32.2079 -2.6
      vertex -1.97815 -32.2079 -4.48
    endloop
  endfacet
  facet normal -0.951034 -0.309086 0
    outer loop
      vertex -1.97815 -32.2079 -2.6
      vertex -1.91354 -32.4067 -4.48
      vertex -1.91354 -32.4067 -2.6
    endloop
  endfacet
  facet normal 0.705153 -0.0742802 -0.705153
    outer loop
      vertex 20.4781 -32.2079 -4.48
      vertex 19.5 -32 -5.48
      vertex 20.5 -32 -4.48
    endloop
  endfacet
  facet normal 0.207601 -0.978214 0
    outer loop
      vertex 19.6045 -32.9945 -4.48
      vertex 19.809 -32.9511 -2.6
      vertex 19.6045 -32.9945 -2.6
    endloop
  endfacet
  facet normal 0.207601 -0.978214 0
    outer loop
      vertex 19.809 -32.9511 -2.6
      vertex 19.6045 -32.9945 -4.48
      vertex 19.809 -32.9511 -4.48
    endloop
  endfacet
  facet normal 0.147198 -0.693597 -0.705164
    outer loop
      vertex 19.6045 -32.9945 -4.48
      vertex 19.5 -32 -5.48
      vertex 19.809 -32.9511 -4.48
    endloop
  endfacet
  facet normal 0.587916 -0.808922 0
    outer loop
      vertex 20 -32.866 -4.48
      vertex 20.1691 -32.7431 -2.6
      vertex 20 -32.866 -2.6
    endloop
  endfacet
  facet normal 0.587916 -0.808922 0
    outer loop
      vertex 20.1691 -32.7431 -2.6
      vertex 20 -32.866 -4.48
      vertex 20.1691 -32.7431 -4.48
    endloop
  endfacet
  facet normal 0.707107 0 -0.707107
    outer loop
      vertex 20.5 -32 -4.48
      vertex 19.5 2.60001 -5.48
      vertex 20.5 2.60001 -4.48
    endloop
  endfacet
  facet normal 0.707107 0 -0.707107
    outer loop
      vertex 19.5 2.60001 -5.48
      vertex 20.5 -32 -4.48
      vertex 19.5 -32 -5.48
    endloop
  endfacet
  facet normal 0.674355 -0.219131 -0.705144
    outer loop
      vertex 20.4135 -32.4067 -4.48
      vertex 19.5 -32 -5.48
      vertex 20.4781 -32.2079 -4.48
    endloop
  endfacet
  facet normal 0.866146 -0.499791 0
    outer loop
      vertex 20.309 -32.5878 -2.6
      vertex 20.4135 -32.4067 -4.48
      vertex 20.4135 -32.4067 -2.6
    endloop
  endfacet
  facet normal 0.866146 -0.499791 0
    outer loop
      vertex 20.4135 -32.4067 -4.48
      vertex 20.309 -32.5878 -2.6
      vertex 20.309 -32.5878 -4.48
    endloop
  endfacet
  facet normal -1 0 0
    outer loop
      vertex 19.5 -34.5 -12.02
      vertex 19.5 -37.2906 -7.3
      vertex 19.5 -34.5 -2.6
    endloop
  endfacet
  facet normal -1 0 0
    outer loop
      vertex 19.5 -34.5 -12.02
      vertex 19.5 -37.7206 -8.90468
      vertex 19.5 -37.2906 -7.3
    endloop
  endfacet
  facet normal -1 0 0
    outer loop
      vertex 19.5 -34.5 -12.02
      vertex 19.5 -38.8953 -10.0794
      vertex 19.5 -37.7206 -8.90468
    endloop
  endfacet
  facet normal -1 0 0
    outer loop
      vertex 19.5 -34.5 -12.02
      vertex 19.5 -40.5 -10.5094
      vertex 19.5 -38.8953 -10.0794
    endloop
  endfacet
  facet normal -1 -0 0
    outer loop
      vertex 19.5 -43.2794 -8.90468
      vertex 19.5 -46.5 -12.02
      vertex 19.5 -43.7094 -7.3
    endloop
  endfacet
  facet normal -1 -0 0
    outer loop
      vertex 19.5 -42.1047 -10.0794
      vertex 19.5 -46.5 -12.02
      vertex 19.5 -43.2794 -8.90468
    endloop
  endfacet
  facet normal -1 -0 0
    outer loop
      vertex 19.5 -40.5 -10.5094
      vertex 19.5 -46.5 -12.02
      vertex 19.5 -42.1047 -10.0794
    endloop
  endfacet
  facet normal -1 0 0
    outer loop
      vertex 19.5 -46.5 -12.02
      vertex 19.5 -40.5 -10.5094
      vertex 19.5 -34.5 -12.02
    endloop
  endfacet
  facet normal -1 0 0
    outer loop
      vertex 19.5 -37.7206 -5.69532
      vertex 19.5 -34.5 -2.6
      vertex 19.5 -37.2906 -7.3
    endloop
  endfacet
  facet normal -1 0 0
    outer loop
      vertex 19.5 -38.8953 -4.52062
      vertex 19.5 -34.5 -2.6
      vertex 19.5 -37.7206 -5.69532
    endloop
  endfacet
  facet normal -1 0 0
    outer loop
      vertex 19.5 -40.5 -4.09064
      vertex 19.5 -34.5 -2.6
      vertex 19.5 -38.8953 -4.52062
    endloop
  endfacet
  facet normal -1 0 0
    outer loop
      vertex 19.5 -46.5 -2.6
      vertex 19.5 -43.7094 -7.3
      vertex 19.5 -46.5 -12.02
    endloop
  endfacet
  facet normal -1 0 0
    outer loop
      vertex 19.5 -40.5 -4.09064
      vertex 19.5 -46.5 -2.6
      vertex 19.5 -34.5 -2.6
    endloop
  endfacet
  facet normal -1 0 0
    outer loop
      vertex 19.5 -42.1047 -4.52062
      vertex 19.5 -46.5 -2.6
      vertex 19.5 -40.5 -4.09064
    endloop
  endfacet
  facet normal -1 0 0
    outer loop
      vertex 19.5 -43.2794 -5.69532
      vertex 19.5 -46.5 -2.6
      vertex 19.5 -42.1047 -4.52062
    endloop
  endfacet
  facet normal -1 0 0
    outer loop
      vertex 19.5 -43.7094 -7.3
      vertex 19.5 -46.5 -2.6
      vertex 19.5 -43.2794 -5.69532
    endloop
  endfacet
  facet normal 1 0 0
    outer loop
      vertex 23.5 4 -1.02
      vertex 23.5 -36 -6.50653
      vertex 23.5 4 -12.02
    endloop
  endfacet
  facet normal 1 0 0
    outer loop
      vertex 23.5 4 -1.02
      vertex 23.5 -36.5428 -5.01529
      vertex 23.5 -36 -6.50653
    endloop
  endfacet
  facet normal 1 0 0
    outer loop
      vertex 23.5 4 -1.02
      vertex 23.5 -37.5628 -3.79962
      vertex 23.5 -36.5428 -5.01529
    endloop
  endfacet
  facet normal 1 0 0
    outer loop
      vertex 23.5 4 -1.02
      vertex 23.5 -38.9372 -3.00615
      vertex 23.5 -37.5628 -3.79962
    endloop
  endfacet
  facet normal 1 0 0
    outer loop
      vertex 23.5 4 -1.02
      vertex 23.5 -40.5 -2.73058
      vertex 23.5 -38.9372 -3.00615
    endloop
  endfacet
  facet normal 1 -0 0
    outer loop
      vertex 23.5 -51.5 -1.02
      vertex 23.5 -40.5 -2.73058
      vertex 23.5 4 -1.02
    endloop
  endfacet
  facet normal 1 0 0
    outer loop
      vertex 23.5 -51.5 -1.02
      vertex 23.5 -42.0628 -3.00615
      vertex 23.5 -40.5 -2.73058
    endloop
  endfacet
  facet normal 1 0 0
    outer loop
      vertex 23.5 -51.5 -1.02
      vertex 23.5 -43.4372 -3.79962
      vertex 23.5 -42.0628 -3.00615
    endloop
  endfacet
  facet normal 1 0 0
    outer loop
      vertex 23.5 -51.5 -1.02
      vertex 23.5 -44.4572 -5.01529
      vertex 23.5 -43.4372 -3.79962
    endloop
  endfacet
  facet normal 1 0 0
    outer loop
      vertex 23.5 -51.5 -1.02
      vertex 23.5 -45 -6.50653
      vertex 23.5 -44.4572 -5.01529
    endloop
  endfacet
  facet normal 1 0 0
    outer loop
      vertex 23.5 -51.5 -12.02
      vertex 23.5 -45 -6.50653
      vertex 23.5 -51.5 -1.02
    endloop
  endfacet
  facet normal 1 0 0
    outer loop
      vertex 23.5 -45 -6.50653
      vertex 23.5 -51.5 -12.02
      vertex 23.5 -45 -12.02
    endloop
  endfacet
  facet normal 1 0 0
    outer loop
      vertex 23.5 4 -12.02
      vertex 23.5 -36 -6.50653
      vertex 23.5 -36 -12.02
    endloop
  endfacet
  facet normal 0 -1 0
    outer loop
      vertex 19.5 -46.5 -12.02
      vertex 21.1 -46.5 -2.6
      vertex 19.5 -46.5 -2.6
    endloop
  endfacet
  facet normal 0 -1 -0
    outer loop
      vertex 21.1 -46.5 -2.6
      vertex 19.5 -46.5 -12.02
      vertex 21.1 -46.5 -12.02
    endloop
  endfacet
  facet normal -0 0 -1
    outer loop
      vertex 21.1 -45 -12.02
      vertex 19.5 -46.5 -12.02
      vertex 21.1 -36 -12.02
    endloop
  endfacet
  facet normal 0 0 -1
    outer loop
      vertex 19.5 -46.5 -12.02
      vertex 21.1 -45 -12.02
      vertex 21.1 -46.5 -12.02
    endloop
  endfacet
  facet normal 0 0 -1
    outer loop
      vertex 19.5 -34.5 -12.02
      vertex 21.1 -36 -12.02
      vertex 19.5 -46.5 -12.02
    endloop
  endfacet
  facet normal 0 0 -1
    outer loop
      vertex 21.1 -36 -12.02
      vertex 19.5 -34.5 -12.02
      vertex 21.1 -34.5 -12.02
    endloop
  endfacet
  facet normal 0 1 -0
    outer loop
      vertex 21.1 -34.5 -12.02
      vertex 19.5 -34.5 -2.6
      vertex 21.1 -34.5 -2.6
    endloop
  endfacet
  facet normal 0 1 0
    outer loop
      vertex 19.5 -34.5 -2.6
      vertex 21.1 -34.5 -12.02
      vertex 19.5 -34.5 -12.02
    endloop
  endfacet
  facet normal 0.705153 -0.0742802 0.705154
    outer loop
      vertex 23.5 -51.5 -1.02
      vertex 22.5 -51.5 -0.0200005
      vertex 23.4781 -51.7079 -1.02
    endloop
  endfacet
  facet normal -0.67433 -0.219157 0.705159
    outer loop
      vertex -4 -51.5 -0.0200005
      vertex -4.97815 -51.7079 -1.02
      vertex -4.91354 -51.9067 -1.02
    endloop
  endfacet
  facet normal 0.526907 0.474474 0.705155
    outer loop
      vertex 23.1691 4.74314 -1.02
      vertex 22.5 4 -0.0200005
      vertex 23.309 4.58778 -1.02
    endloop
  endfacet
  facet normal 0.994498 -0.104759 0
    outer loop
      vertex 23.4781 -51.7079 -1.02
      vertex 23.5 -51.5 -12.02
      vertex 23.5 -51.5 -1.02
    endloop
  endfacet
  facet normal 0.994498 -0.104759 0
    outer loop
      vertex 23.5 -51.5 -12.02
      vertex 23.4781 -51.7079 -1.02
      vertex 23.4781 -51.7079 -12.02
    endloop
  endfacet
  facet normal 0.288568 -0.647667 0.705164
    outer loop
      vertex 23 -52.366 -1.02
      vertex 22.5 -51.5 -0.0200005
      vertex 22.809 -52.4511 -1.02
    endloop
  endfacet
  facet normal -0.207611 -0.978211 0
    outer loop
      vertex -4.30902 -52.4511 -12.02
      vertex -4.10453 -52.4945 -1.02
      vertex -4.30902 -52.4511 -1.02
    endloop
  endfacet
  facet normal -0.207611 -0.978211 -0
    outer loop
      vertex -4.10453 -52.4945 -1.02
      vertex -4.30902 -52.4511 -12.02
      vertex -4.10453 -52.4945 -12.02
    endloop
  endfacet
  facet normal 0.705153 0.0742766 0.705154
    outer loop
      vertex 23.4781 4.20791 -1.02
      vertex 22.5 4 -0.0200005
      vertex 23.5 4 -1.02
    endloop
  endfacet
  facet normal 0 0 1
    outer loop
      vertex 5.15 4 -0.0200005
      vertex 0 3 -0.0200005
      vertex 5.15 3 -0.0200005
    endloop
  endfacet
  facet normal 0 0 1
    outer loop
      vertex 0 3 -0.0200005
      vertex -4 4 -0.0200005
      vertex 0 -31 -0.0200005
    endloop
  endfacet
  facet normal -0 0 1
    outer loop
      vertex -4 4 -0.0200005
      vertex 0 3 -0.0200005
      vertex 5.15 4 -0.0200005
    endloop
  endfacet
  facet normal 0 0 1
    outer loop
      vertex 18.5 -31 -0.0200005
      vertex 22.5 4 -0.0200005
      vertex 18.5 3 -0.0200005
    endloop
  endfacet
  facet normal -0 0 1
    outer loop
      vertex 13.35 4 -0.0200005
      vertex 18.5 3 -0.0200005
      vertex 22.5 4 -0.0200005
    endloop
  endfacet
  facet normal 0 0 1
    outer loop
      vertex 18.5 3 -0.0200005
      vertex 13.35 4 -0.0200005
      vertex 13.35 3 -0.0200005
    endloop
  endfacet
  facet normal 0 0 1
    outer loop
      vertex 22.5 4 -0.0200005
      vertex 18.5 -31 -0.0200005
      vertex 22.5 -51.5 -0.0200005
    endloop
  endfacet
  facet normal -0 0 1
    outer loop
      vertex 0 -31 -0.0200005
      vertex 22.5 -51.5 -0.0200005
      vertex 18.5 -31 -0.0200005
    endloop
  endfacet
  facet normal 0 0 1
    outer loop
      vertex 0 -31 -0.0200005
      vertex -4 -51.5 -0.0200005
      vertex 22.5 -51.5 -0.0200005
    endloop
  endfacet
  facet normal 0 0 1
    outer loop
      vertex -4 -51.5 -0.0200005
      vertex 0 -31 -0.0200005
      vertex -4 4 -0.0200005
    endloop
  endfacet
  facet normal 0.707107 -0 0.707107
    outer loop
      vertex 22.5 -51.5 -0.0200005
      vertex 23.5 4 -1.02
      vertex 22.5 4 -0.0200005
    endloop
  endfacet
  facet normal 0.707107 0 0.707107
    outer loop
      vertex 23.5 4 -1.02
      vertex 22.5 -51.5 -0.0200005
      vertex 23.5 -51.5 -1.02
    endloop
  endfacet
  facet normal 0 0.709047 0.705162
    outer loop
      vertex 5.15 4.99452 -1.02
      vertex -4 4 -0.0200005
      vertex 5.15 4 -0.0200005
    endloop
  endfacet
  facet normal 0 0.709047 0.705162
    outer loop
      vertex -4 4 -0.0200005
      vertex 5.15 4.99452 -1.02
      vertex -4.10453 4.99452 -1.02
    endloop
  endfacet
  facet normal -0 0.709047 0.705162
    outer loop
      vertex 13.35 4.99452 -1.02
      vertex 22.5 4 -0.0200005
      vertex 22.6045 4.99452 -1.02
    endloop
  endfacet
  facet normal 0 0.709047 0.705162
    outer loop
      vertex 22.5 4 -0.0200005
      vertex 13.35 4.99452 -1.02
      vertex 13.35 4 -0.0200005
    endloop
  endfacet
  facet normal -1 0 0
    outer loop
      vertex -5 -51.5 -12.02
      vertex -5 4 -1.02
      vertex -5 4 -12.02
    endloop
  endfacet
  facet normal -1 -0 0
    outer loop
      vertex -5 4 -1.02
      vertex -5 -51.5 -12.02
      vertex -5 -51.5 -1.02
    endloop
  endfacet
  facet normal -0.1474 0.693555 0.705163
    outer loop
      vertex -4.10453 4.99452 -1.02
      vertex -4.30902 4.95106 -1.02
      vertex -4 4 -0.0200005
    endloop
  endfacet
  facet normal -0.707107 0 0.707107
    outer loop
      vertex -5 -51.5 -1.02
      vertex -4 4 -0.0200005
      vertex -5 4 -1.02
    endloop
  endfacet
  facet normal -0.707107 0 0.707107
    outer loop
      vertex -4 4 -0.0200005
      vertex -5 -51.5 -1.02
      vertex -4 -51.5 -0.0200005
    endloop
  endfacet
  facet normal 0 -1 0
    outer loop
      vertex -4.10453 -52.4945 -12.02
      vertex 22.6045 -52.4945 -1.02
      vertex -4.10453 -52.4945 -1.02
    endloop
  endfacet
  facet normal 0 -1 -0
    outer loop
      vertex 22.6045 -52.4945 -1.02
      vertex -4.10453 -52.4945 -12.02
      vertex 22.6045 -52.4945 -12.02
    endloop
  endfacet
  facet normal 0.994498 0.104755 0
    outer loop
      vertex 23.5 4 -1.02
      vertex 23.4781 4.20791 -12.02
      vertex 23.4781 4.20791 -1.02
    endloop
  endfacet
  facet normal 0.994498 0.104755 0
    outer loop
      vertex 23.4781 4.20791 -12.02
      vertex 23.5 4 -1.02
      vertex 23.5 4 -12.02
    endloop
  endfacet
  facet normal 0.406742 0.913543 -0
    outer loop
      vertex 23 4.86602 -12.02
      vertex 22.809 4.95106 -1.02
      vertex 23 4.86602 -1.02
    endloop
  endfacet
  facet normal 0.406742 0.913543 0
    outer loop
      vertex 22.809 4.95106 -1.02
      vertex 23 4.86602 -12.02
      vertex 22.809 4.95106 -12.02
    endloop
  endfacet
  facet normal -0.743137 0.669139 0
    outer loop
      vertex -4.80902 4.58778 -12.02
      vertex -4.66913 4.74314 -1.02
      vertex -4.66913 4.74314 -12.02
    endloop
  endfacet
  facet normal -0.743137 0.669139 0
    outer loop
      vertex -4.66913 4.74314 -1.02
      vertex -4.80902 4.58778 -12.02
      vertex -4.80902 4.58778 -1.02
    endloop
  endfacet
  facet normal 0 -0.709054 0.705154
    outer loop
      vertex -4.10453 -52.4945 -1.02
      vertex 22.5 -51.5 -0.0200005
      vertex -4 -51.5 -0.0200005
    endloop
  endfacet
  facet normal 0 -0.709054 0.705154
    outer loop
      vertex 22.5 -51.5 -0.0200005
      vertex -4.10453 -52.4945 -1.02
      vertex 22.6045 -52.4945 -1.02
    endloop
  endfacet
  facet normal 0.951048 -0.309043 0
    outer loop
      vertex 23.4135 -51.9067 -1.02
      vertex 23.4781 -51.7079 -12.02
      vertex 23.4781 -51.7079 -1.02
    endloop
  endfacet
  facet normal 0.951048 -0.309043 0
    outer loop
      vertex 23.4781 -51.7079 -12.02
      vertex 23.4135 -51.9067 -1.02
      vertex 23.4135 -51.9067 -12.02
    endloop
  endfacet
  facet normal 0.147394 0.693558 0.705161
    outer loop
      vertex 22.6045 4.99452 -1.02
      vertex 22.5 4 -0.0200005
      vertex 22.809 4.95106 -1.02
    endloop
  endfacet
  facet normal -0.743009 -0.669282 0
    outer loop
      vertex -4.66913 -52.2431 -12.02
      vertex -4.80902 -52.0878 -1.02
      vertex -4.80902 -52.0878 -12.02
    endloop
  endfacet
  facet normal -0.743009 -0.669282 0
    outer loop
      vertex -4.80902 -52.0878 -1.02
      vertex -4.66913 -52.2431 -12.02
      vertex -4.66913 -52.2431 -1.02
    endloop
  endfacet
  facet normal -0.61411 -0.354427 0.70516
    outer loop
      vertex -4 -51.5 -0.0200005
      vertex -4.91354 -51.9067 -1.02
      vertex -4.80902 -52.0878 -1.02
    endloop
  endfacet
  facet normal -0.705162 -0.0741115 0.705162
    outer loop
      vertex -4 -51.5 -0.0200005
      vertex -5 -51.5 -1.02
      vertex -4.97815 -51.7079 -1.02
    endloop
  endfacet
  facet normal -0.866033 0.499987 0
    outer loop
      vertex -4.91354 4.40674 -12.02
      vertex -4.80902 4.58778 -1.02
      vertex -4.80902 4.58778 -12.02
    endloop
  endfacet
  facet normal -0.866033 0.499987 0
    outer loop
      vertex -4.80902 4.58778 -1.02
      vertex -4.91354 4.40674 -12.02
      vertex -4.91354 4.40674 -1.02
    endloop
  endfacet
  facet normal 0.951062 0.309001 0
    outer loop
      vertex 23.4781 4.20791 -1.02
      vertex 23.4135 4.40674 -12.02
      vertex 23.4135 4.40674 -1.02
    endloop
  endfacet
  facet normal 0.951062 0.309001 0
    outer loop
      vertex 23.4135 4.40674 -12.02
      vertex 23.4781 4.20791 -1.02
      vertex 23.4781 4.20791 -12.02
    endloop
  endfacet
  facet normal 0.674354 -0.219131 0.705144
    outer loop
      vertex 23.4781 -51.7079 -1.02
      vertex 22.5 -51.5 -0.0200005
      vertex 23.4135 -51.9067 -1.02
    endloop
  endfacet
  facet normal 0.866074 0.499916 0
    outer loop
      vertex 23.4135 4.40674 -1.02
      vertex 23.309 4.58778 -12.02
      vertex 23.309 4.58778 -1.02
    endloop
  endfacet
  facet normal 0.866074 0.499916 0
    outer loop
      vertex 23.309 4.58778 -12.02
      vertex 23.4135 4.40674 -1.02
      vertex 23.4135 4.40674 -12.02
    endloop
  endfacet
  facet normal 0.416867 -0.573574 0.705149
    outer loop
      vertex 23.1691 -52.2431 -1.02
      vertex 22.5 -51.5 -0.0200005
      vertex 23 -52.366 -1.02
    endloop
  endfacet
  facet normal 0.587916 -0.808922 0
    outer loop
      vertex 23 -52.366 -12.02
      vertex 23.1691 -52.2431 -1.02
      vertex 23 -52.366 -1.02
    endloop
  endfacet
  facet normal 0.587916 -0.808922 0
    outer loop
      vertex 23.1691 -52.2431 -1.02
      vertex 23 -52.366 -12.02
      vertex 23.1691 -52.2431 -12.02
    endloop
  endfacet
  facet normal 0.416818 0.573599 0.705157
    outer loop
      vertex 23 4.86602 -1.02
      vertex 22.5 4 -0.0200005
      vertex 23.1691 4.74314 -1.02
    endloop
  endfacet
  facet normal -0.407017 -0.913421 0
    outer loop
      vertex -4.5 -52.366 -12.02
      vertex -4.30902 -52.4511 -1.02
      vertex -4.5 -52.366 -1.02
    endloop
  endfacet
  facet normal -0.407017 -0.913421 -0
    outer loop
      vertex -4.30902 -52.4511 -1.02
      vertex -4.5 -52.366 -12.02
      vertex -4.30902 -52.4511 -12.02
    endloop
  endfacet
  facet normal 0.406981 -0.913436 0
    outer loop
      vertex 22.809 -52.4511 -12.02
      vertex 23 -52.366 -1.02
      vertex 22.809 -52.4511 -1.02
    endloop
  endfacet
  facet normal 0.406981 -0.913436 0
    outer loop
      vertex 23 -52.366 -1.02
      vertex 22.809 -52.4511 -12.02
      vertex 23 -52.366 -12.02
    endloop
  endfacet
  facet normal 0.614095 0.354468 0.705152
    outer loop
      vertex 23.309 4.58778 -1.02
      vertex 22.5 4 -0.0200005
      vertex 23.4135 4.40674 -1.02
    endloop
  endfacet
  facet normal 0.674361 0.2191 0.705146
    outer loop
      vertex 23.4135 4.40674 -1.02
      vertex 22.5 4 -0.0200005
      vertex 23.4781 4.20791 -1.02
    endloop
  endfacet
  facet normal -0.951048 0.309044 0
    outer loop
      vertex -4.97815 4.20791 -12.02
      vertex -4.91354 4.40674 -1.02
      vertex -4.91354 4.40674 -12.02
    endloop
  endfacet
  facet normal -0.951048 0.309044 0
    outer loop
      vertex -4.91354 4.40674 -1.02
      vertex -4.97815 4.20791 -12.02
      vertex -4.97815 4.20791 -1.02
    endloop
  endfacet
  facet normal -0.994522 -0.104523 0
    outer loop
      vertex -4.97815 -51.7079 -12.02
      vertex -5 -51.5 -1.02
      vertex -5 -51.5 -12.02
    endloop
  endfacet
  facet normal -0.994522 -0.104523 0
    outer loop
      vertex -5 -51.5 -1.02
      vertex -4.97815 -51.7079 -12.02
      vertex -4.97815 -51.7079 -1.02
    endloop
  endfacet
  facet normal -0.52683 -0.474554 0.705159
    outer loop
      vertex -4 -51.5 -0.0200005
      vertex -4.80902 -52.0878 -1.02
      vertex -4.66913 -52.2431 -1.02
    endloop
  endfacet
  facet normal 0.207876 0.978155 -0
    outer loop
      vertex 22.809 4.95106 -12.02
      vertex 22.6045 4.99452 -1.02
      vertex 22.809 4.95106 -1.02
    endloop
  endfacet
  facet normal 0.207876 0.978155 0
    outer loop
      vertex 22.6045 4.99452 -1.02
      vertex 22.809 4.95106 -12.02
      vertex 22.6045 4.99452 -12.02
    endloop
  endfacet
  facet normal 0.526818 -0.474577 0.705152
    outer loop
      vertex 23.309 -52.0878 -1.02
      vertex 22.5 -51.5 -0.0200005
      vertex 23.1691 -52.2431 -1.02
    endloop
  endfacet
  facet normal 0.742985 -0.669308 0
    outer loop
      vertex 23.1691 -52.2431 -1.02
      vertex 23.309 -52.0878 -12.02
      vertex 23.309 -52.0878 -1.02
    endloop
  endfacet
  facet normal 0.742985 -0.669308 0
    outer loop
      vertex 23.309 -52.0878 -12.02
      vertex 23.1691 -52.2431 -1.02
      vertex 23.1691 -52.2431 -12.02
    endloop
  endfacet
  facet normal 0.147198 -0.693596 0.705164
    outer loop
      vertex 22.809 -52.4511 -1.02
      vertex 22.5 -51.5 -0.0200005
      vertex 22.6045 -52.4945 -1.02
    endloop
  endfacet
  facet normal 0.207601 -0.978214 0
    outer loop
      vertex 22.6045 -52.4945 -12.02
      vertex 22.809 -52.4511 -1.02
      vertex 22.6045 -52.4945 -1.02
    endloop
  endfacet
  facet normal 0.207601 -0.978214 0
    outer loop
      vertex 22.809 -52.4511 -1.02
      vertex 22.6045 -52.4945 -12.02
      vertex 22.809 -52.4511 -12.02
    endloop
  endfacet
  facet normal 0.743113 0.669166 0
    outer loop
      vertex 23.309 4.58778 -1.02
      vertex 23.1691 4.74314 -12.02
      vertex 23.1691 4.74314 -1.02
    endloop
  endfacet
  facet normal 0.743113 0.669166 0
    outer loop
      vertex 23.1691 4.74314 -12.02
      vertex 23.309 4.58778 -1.02
      vertex 23.309 4.58778 -12.02
    endloop
  endfacet
  facet normal 0 0 -1
    outer loop
      vertex 22.6045 -52.4945 -12.02
      vertex -2.60001 -50.1 -12.02
      vertex 21.1 -50.1 -12.02
    endloop
  endfacet
  facet normal 0 0 -1
    outer loop
      vertex -5 -51.5 -12.02
      vertex -2.60001 -50.1 -12.02
      vertex -4.10453 -52.4945 -12.02
    endloop
  endfacet
  facet normal 0 0 -1
    outer loop
      vertex -4.10453 -52.4945 -12.02
      vertex -2.60001 -50.1 -12.02
      vertex 22.6045 -52.4945 -12.02
    endloop
  endfacet
  facet normal 0 0 -1
    outer loop
      vertex 22.6045 -52.4945 -12.02
      vertex 23.5 -51.5 -12.02
      vertex 23.4781 -51.7079 -12.02
    endloop
  endfacet
  facet normal 0 0 -1
    outer loop
      vertex 22.6045 -52.4945 -12.02
      vertex 23.4781 -51.7079 -12.02
      vertex 23.4135 -51.9067 -12.02
    endloop
  endfacet
  facet normal 0 0 -1
    outer loop
      vertex 22.6045 -52.4945 -12.02
      vertex 23.4135 -51.9067 -12.02
      vertex 23.309 -52.0878 -12.02
    endloop
  endfacet
  facet normal 0 0 -1
    outer loop
      vertex 22.6045 -52.4945 -12.02
      vertex 23.309 -52.0878 -12.02
      vertex 23.1691 -52.2431 -12.02
    endloop
  endfacet
  facet normal 0 0 -1
    outer loop
      vertex 22.6045 -52.4945 -12.02
      vertex 23.1691 -52.2431 -12.02
      vertex 23 -52.366 -12.02
    endloop
  endfacet
  facet normal 0 0 -1
    outer loop
      vertex 22.6045 -52.4945 -12.02
      vertex 23 -52.366 -12.02
      vertex 22.809 -52.4511 -12.02
    endloop
  endfacet
  facet normal -0 0 -1
    outer loop
      vertex 23.5 -51.5 -12.02
      vertex 22.6045 -52.4945 -12.02
      vertex 21.1 -50.1 -12.02
    endloop
  endfacet
  facet normal 0 0 -1
    outer loop
      vertex 23.5 -51.5 -12.02
      vertex 21.1 -50.1 -12.02
      vertex 23.5 -45 -12.02
    endloop
  endfacet
  facet normal -0 0 -1
    outer loop
      vertex 23.5 -45 -12.02
      vertex 21.1 -50.1 -12.02
      vertex 21.1 -45 -12.02
    endloop
  endfacet
  facet normal 0 0 -1
    outer loop
      vertex 21.1 2.60001 -12.02
      vertex 23.5 4 -12.02
      vertex 23.5 -36 -12.02
    endloop
  endfacet
  facet normal 0 -0 -1
    outer loop
      vertex 22.6045 4.99452 -12.02
      vertex 23.5 4 -12.02
      vertex 21.1 2.60001 -12.02
    endloop
  endfacet
  facet normal 0 0 -1
    outer loop
      vertex 23.5 4 -12.02
      vertex 22.6045 4.99452 -12.02
      vertex 23.4781 4.20791 -12.02
    endloop
  endfacet
  facet normal 0 0 -1
    outer loop
      vertex 23.4781 4.20791 -12.02
      vertex 22.6045 4.99452 -12.02
      vertex 23.4135 4.40674 -12.02
    endloop
  endfacet
  facet normal 0 0 -1
    outer loop
      vertex 23.4135 4.40674 -12.02
      vertex 22.6045 4.99452 -12.02
      vertex 23.309 4.58778 -12.02
    endloop
  endfacet
  facet normal 0 0 -1
    outer loop
      vertex 23.309 4.58778 -12.02
      vertex 22.6045 4.99452 -12.02
      vertex 23.1691 4.74314 -12.02
    endloop
  endfacet
  facet normal 0 0 -1
    outer loop
      vertex 23.1691 4.74314 -12.02
      vertex 22.6045 4.99452 -12.02
      vertex 23 4.86602 -12.02
    endloop
  endfacet
  facet normal 0 0 -1
    outer loop
      vertex 21.1 2.60001 -12.02
      vertex 23.5 -36 -12.02
      vertex 21.1 -36 -12.02
    endloop
  endfacet
  facet normal 0 0 -1
    outer loop
      vertex 23 4.86602 -12.02
      vertex 22.6045 4.99452 -12.02
      vertex 22.809 4.95106 -12.02
    endloop
  endfacet
  facet normal 0 0 -1
    outer loop
      vertex -2.60001 2.60001 -12.02
      vertex 22.6045 4.99452 -12.02
      vertex 21.1 2.60001 -12.02
    endloop
  endfacet
  facet normal 0 0 -1
    outer loop
      vertex -2.60001 2.60001 -12.02
      vertex -4.10453 4.99452 -12.02
      vertex 22.6045 4.99452 -12.02
    endloop
  endfacet
  facet normal -0 0 -1
    outer loop
      vertex -2.60001 -50.1 -12.02
      vertex -5 -51.5 -12.02
      vertex -2.60001 2.60001 -12.02
    endloop
  endfacet
  facet normal 0 0 -1
    outer loop
      vertex -5 -51.5 -12.02
      vertex -4.10453 -52.4945 -12.02
      vertex -4.30902 -52.4511 -12.02
    endloop
  endfacet
  facet normal 0 0 -1
    outer loop
      vertex -5 4 -12.02
      vertex -2.60001 2.60001 -12.02
      vertex -5 -51.5 -12.02
    endloop
  endfacet
  facet normal 0 0 -1
    outer loop
      vertex -5 -51.5 -12.02
      vertex -4.30902 -52.4511 -12.02
      vertex -4.5 -52.366 -12.02
    endloop
  endfacet
  facet normal 0 0 -1
    outer loop
      vertex -2.60001 2.60001 -12.02
      vertex -5 4 -12.02
      vertex -4.10453 4.99452 -12.02
    endloop
  endfacet
  facet normal 0 0 -1
    outer loop
      vertex -5 -51.5 -12.02
      vertex -4.5 -52.366 -12.02
      vertex -4.66913 -52.2431 -12.02
    endloop
  endfacet
  facet normal 0 0 -1
    outer loop
      vertex -4.10453 4.99452 -12.02
      vertex -5 4 -12.02
      vertex -4.30902 4.95106 -12.02
    endloop
  endfacet
  facet normal 0 0 -1
    outer loop
      vertex -5 -51.5 -12.02
      vertex -4.66913 -52.2431 -12.02
      vertex -4.80902 -52.0878 -12.02
    endloop
  endfacet
  facet normal 0 0 -1
    outer loop
      vertex -4.30902 4.95106 -12.02
      vertex -5 4 -12.02
      vertex -4.5 4.86602 -12.02
    endloop
  endfacet
  facet normal 0 0 -1
    outer loop
      vertex -5 -51.5 -12.02
      vertex -4.80902 -52.0878 -12.02
      vertex -4.91354 -51.9067 -12.02
    endloop
  endfacet
  facet normal 0 0 -1
    outer loop
      vertex -4.5 4.86602 -12.02
      vertex -5 4 -12.02
      vertex -4.66913 4.74314 -12.02
    endloop
  endfacet
  facet normal 0 0 -1
    outer loop
      vertex -5 -51.5 -12.02
      vertex -4.91354 -51.9067 -12.02
      vertex -4.97815 -51.7079 -12.02
    endloop
  endfacet
  facet normal 0 0 -1
    outer loop
      vertex -4.66913 4.74314 -12.02
      vertex -5 4 -12.02
      vertex -4.80902 4.58778 -12.02
    endloop
  endfacet
  facet normal 0 0 -1
    outer loop
      vertex -4.80902 4.58778 -12.02
      vertex -5 4 -12.02
      vertex -4.91354 4.40674 -12.02
    endloop
  endfacet
  facet normal 0 0 -1
    outer loop
      vertex -4.91354 4.40674 -12.02
      vertex -5 4 -12.02
      vertex -4.97815 4.20791 -12.02
    endloop
  endfacet
  facet normal -0.674337 0.219126 0.705162
    outer loop
      vertex -4.91354 4.40674 -1.02
      vertex -4.97815 4.20791 -1.02
      vertex -4 4 -0.0200005
    endloop
  endfacet
  facet normal -0.705162 0.074108 0.705163
    outer loop
      vertex -4.97815 4.20791 -1.02
      vertex -5 4 -1.02
      vertex -4 4 -0.0200005
    endloop
  endfacet
  facet normal 0.614147 -0.354381 0.705151
    outer loop
      vertex 23.4135 -51.9067 -1.02
      vertex 22.5 -51.5 -0.0200005
      vertex 23.309 -52.0878 -1.02
    endloop
  endfacet
  facet normal 0.866146 -0.499791 0
    outer loop
      vertex 23.309 -52.0878 -1.02
      vertex 23.4135 -51.9067 -12.02
      vertex 23.4135 -51.9067 -1.02
    endloop
  endfacet
  facet normal 0.866146 -0.499791 0
    outer loop
      vertex 23.4135 -51.9067 -12.02
      vertex 23.309 -52.0878 -1.02
      vertex 23.309 -52.0878 -12.02
    endloop
  endfacet
  facet normal -0.866104 -0.499863 0
    outer loop
      vertex -4.80902 -52.0878 -12.02
      vertex -4.91354 -51.9067 -1.02
      vertex -4.91354 -51.9067 -12.02
    endloop
  endfacet
  facet normal -0.866104 -0.499863 0
    outer loop
      vertex -4.91354 -51.9067 -1.02
      vertex -4.80902 -52.0878 -12.02
      vertex -4.80902 -52.0878 -1.02
    endloop
  endfacet
  facet normal -0.416817 -0.573606 0.705152
    outer loop
      vertex -4 -51.5 -0.0200005
      vertex -4.66913 -52.2431 -1.02
      vertex -4.5 -52.366 -1.02
    endloop
  endfacet
  facet normal -0.587847 -0.808972 0
    outer loop
      vertex -4.66913 -52.2431 -12.02
      vertex -4.5 -52.366 -1.02
      vertex -4.66913 -52.2431 -1.02
    endloop
  endfacet
  facet normal -0.587847 -0.808972 -0
    outer loop
      vertex -4.5 -52.366 -1.02
      vertex -4.66913 -52.2431 -12.02
      vertex -4.5 -52.366 -12.02
    endloop
  endfacet
  facet normal 0.288399 0.647746 0.705161
    outer loop
      vertex 22.809 4.95106 -1.02
      vertex 22.5 4 -0.0200005
      vertex 23 4.86602 -1.02
    endloop
  endfacet
  facet normal 0.587853 0.808968 -0
    outer loop
      vertex 23.1691 4.74314 -12.02
      vertex 23 4.86602 -1.02
      vertex 23.1691 4.74314 -1.02
    endloop
  endfacet
  facet normal 0.587853 0.808968 0
    outer loop
      vertex 23 4.86602 -1.02
      vertex 23.1691 4.74314 -12.02
      vertex 23 4.86602 -12.02
    endloop
  endfacet
  facet normal -0.406777 0.913527 0
    outer loop
      vertex -4.30902 4.95106 -12.02
      vertex -4.5 4.86602 -1.02
      vertex -4.30902 4.95106 -1.02
    endloop
  endfacet
  facet normal -0.406777 0.913527 0
    outer loop
      vertex -4.5 4.86602 -1.02
      vertex -4.30902 4.95106 -12.02
      vertex -4.5 4.86602 -12.02
    endloop
  endfacet
  facet normal -0.288424 0.647733 0.705162
    outer loop
      vertex -4.30902 4.95106 -1.02
      vertex -4.5 4.86602 -1.02
      vertex -4 4 -0.0200005
    endloop
  endfacet
  facet normal -0.951034 -0.309086 0
    outer loop
      vertex -4.91354 -51.9067 -12.02
      vertex -4.97815 -51.7079 -1.02
      vertex -4.97815 -51.7079 -12.02
    endloop
  endfacet
  facet normal -0.951034 -0.309086 0
    outer loop
      vertex -4.97815 -51.7079 -1.02
      vertex -4.91354 -51.9067 -12.02
      vertex -4.91354 -51.9067 -1.02
    endloop
  endfacet
  facet normal -0.147205 -0.693593 0.705166
    outer loop
      vertex -4 -51.5 -0.0200005
      vertex -4.30902 -52.4511 -1.02
      vertex -4.10453 -52.4945 -1.02
    endloop
  endfacet
  facet normal -0.288592 -0.647654 0.705165
    outer loop
      vertex -4 -51.5 -0.0200005
      vertex -4.5 -52.366 -1.02
      vertex -4.30902 -52.4511 -1.02
    endloop
  endfacet
  facet normal -0.994523 0.104518 0
    outer loop
      vertex -5 4 -12.02
      vertex -4.97815 4.20791 -1.02
      vertex -4.97815 4.20791 -12.02
    endloop
  endfacet
  facet normal -0.994523 0.104518 0
    outer loop
      vertex -4.97815 4.20791 -1.02
      vertex -5 4 -12.02
      vertex -5 4 -1.02
    endloop
  endfacet
  facet normal -0.614057 0.354514 0.705162
    outer loop
      vertex -4.80902 4.58778 -1.02
      vertex -4.91354 4.40674 -1.02
      vertex -4 4 -0.0200005
    endloop
  endfacet
  facet normal -0.526919 0.474451 0.705161
    outer loop
      vertex -4.66913 4.74314 -1.02
      vertex -4.80902 4.58778 -1.02
      vertex -4 4 -0.0200005
    endloop
  endfacet
  facet normal -0.416767 0.573632 0.705161
    outer loop
      vertex -4.5 4.86602 -1.02
      vertex -4.66913 4.74314 -1.02
      vertex -4 4 -0.0200005
    endloop
  endfacet
  facet normal -0.207886 0.978153 0
    outer loop
      vertex -4.10453 4.99452 -12.02
      vertex -4.30902 4.95106 -1.02
      vertex -4.10453 4.99452 -1.02
    endloop
  endfacet
  facet normal -0.207886 0.978153 0
    outer loop
      vertex -4.30902 4.95106 -1.02
      vertex -4.10453 4.99452 -12.02
      vertex -4.30902 4.95106 -12.02
    endloop
  endfacet
  facet normal -0.587785 0.809017 0
    outer loop
      vertex -4.5 4.86602 -12.02
      vertex -4.66913 4.74314 -1.02
      vertex -4.5 4.86602 -1.02
    endloop
  endfacet
  facet normal -0.587785 0.809017 0
    outer loop
      vertex -4.66913 4.74314 -1.02
      vertex -4.5 4.86602 -12.02
      vertex -4.66913 4.74314 -12.02
    endloop
  endfacet
  facet normal 0 0 -1
    outer loop
      vertex 21.1 -50.1 -2.6
      vertex 19.5 -46.5 -2.6
      vertex 21.1 -46.5 -2.6
    endloop
  endfacet
  facet normal 0 0 -1
    outer loop
      vertex 19.5 -46.5 -2.6
      vertex -1.10453 -32.9945 -2.6
      vertex 19.5 -34.5 -2.6
    endloop
  endfacet
  facet normal 0 0 -1
    outer loop
      vertex -2.60001 -50.1 -2.6
      vertex 19.5 -46.5 -2.6
      vertex 21.1 -50.1 -2.6
    endloop
  endfacet
  facet normal -0 0 -1
    outer loop
      vertex 19.5 -46.5 -2.6
      vertex -2.60001 -50.1 -2.6
      vertex -1.10453 -32.9945 -2.6
    endloop
  endfacet
  facet normal -0 0 -1
    outer loop
      vertex -1.10453 -32.9945 -2.6
      vertex -2.60001 -50.1 -2.6
      vertex -1.30902 -32.9511 -2.6
    endloop
  endfacet
  facet normal -0 0 -1
    outer loop
      vertex -1.30902 -32.9511 -2.6
      vertex -2.60001 -50.1 -2.6
      vertex -1.5 -32.866 -2.6
    endloop
  endfacet
  facet normal -0 0 -1
    outer loop
      vertex -1.5 -32.866 -2.6
      vertex -2.60001 -50.1 -2.6
      vertex -1.66913 -32.7431 -2.6
    endloop
  endfacet
  facet normal 0 0 -1
    outer loop
      vertex -2.60001 -50.1 -2.6
      vertex -1.80902 -32.5878 -2.6
      vertex -1.66913 -32.7431 -2.6
    endloop
  endfacet
  facet normal 0 0 -1
    outer loop
      vertex -2.60001 -50.1 -2.6
      vertex -1.91354 -32.4067 -2.6
      vertex -1.80902 -32.5878 -2.6
    endloop
  endfacet
  facet normal 0 0 -1
    outer loop
      vertex -2.60001 -50.1 -2.6
      vertex -1.97815 -32.2079 -2.6
      vertex -1.91354 -32.4067 -2.6
    endloop
  endfacet
  facet normal 0 0 -1
    outer loop
      vertex -2.60001 -50.1 -2.6
      vertex -2 -32 -2.6
      vertex -1.97815 -32.2079 -2.6
    endloop
  endfacet
  facet normal 0 0 -1
    outer loop
      vertex -2.60001 2.60001 -2.6
      vertex -2 -32 -2.6
      vertex -2.60001 -50.1 -2.6
    endloop
  endfacet
  facet normal 0 0 -1
    outer loop
      vertex -2 -32 -2.6
      vertex -2.60001 2.60001 -2.6
      vertex -2 2.60001 -2.6
    endloop
  endfacet
  facet normal 0 0 -1
    outer loop
      vertex 21.1 -34.5 -2.6
      vertex 20.5 -32 -2.6
      vertex 21.1 2.60001 -2.6
    endloop
  endfacet
  facet normal 0 0 -1
    outer loop
      vertex 21.1 -34.5 -2.6
      vertex 20.4781 -32.2079 -2.6
      vertex 20.5 -32 -2.6
    endloop
  endfacet
  facet normal 0 0 -1
    outer loop
      vertex 21.1 -34.5 -2.6
      vertex 20.4135 -32.4067 -2.6
      vertex 20.4781 -32.2079 -2.6
    endloop
  endfacet
  facet normal 0 0 -1
    outer loop
      vertex 21.1 -34.5 -2.6
      vertex 20.309 -32.5878 -2.6
      vertex 20.4135 -32.4067 -2.6
    endloop
  endfacet
  facet normal 0 0 -1
    outer loop
      vertex 21.1 -34.5 -2.6
      vertex 20.1691 -32.7431 -2.6
      vertex 20.309 -32.5878 -2.6
    endloop
  endfacet
  facet normal 0 0 -1
    outer loop
      vertex 21.1 -34.5 -2.6
      vertex 20 -32.866 -2.6
      vertex 20.1691 -32.7431 -2.6
    endloop
  endfacet
  facet normal 0 0 -1
    outer loop
      vertex 21.1 -34.5 -2.6
      vertex 19.809 -32.9511 -2.6
      vertex 20 -32.866 -2.6
    endloop
  endfacet
  facet normal 0 0 -1
    outer loop
      vertex 19.5 -34.5 -2.6
      vertex 19.809 -32.9511 -2.6
      vertex 21.1 -34.5 -2.6
    endloop
  endfacet
  facet normal 0 0 -1
    outer loop
      vertex 19.809 -32.9511 -2.6
      vertex 19.5 -34.5 -2.6
      vertex 19.6045 -32.9945 -2.6
    endloop
  endfacet
  facet normal -0 0 -1
    outer loop
      vertex 19.6045 -32.9945 -2.6
      vertex 19.5 -34.5 -2.6
      vertex -1.10453 -32.9945 -2.6
    endloop
  endfacet
  facet normal -0 0 -1
    outer loop
      vertex 21.1 2.60001 -2.6
      vertex 20.5 -32 -2.6
      vertex 20.5 2.60001 -2.6
    endloop
  endfacet
  facet normal 1 -0 0
    outer loop
      vertex -2.60001 -50.1 -2.6
      vertex -2.60001 2.60001 -12.02
      vertex -2.60001 2.60001 -2.6
    endloop
  endfacet
  facet normal 1 0 0
    outer loop
      vertex -2.60001 2.60001 -12.02
      vertex -2.60001 -50.1 -2.6
      vertex -2.60001 -50.1 -12.02
    endloop
  endfacet
  facet normal 0 -1 0
    outer loop
      vertex -2.60001 2.60001 -2.6
      vertex -2 2.60001 -4.48
      vertex -2 2.60001 -2.6
    endloop
  endfacet
  facet normal 0 -1 -0
    outer loop
      vertex -1 2.60001 -5.48
      vertex -2.60001 2.60001 -12.02
      vertex 19.5 2.60001 -5.48
    endloop
  endfacet
  facet normal 0 -1 -0
    outer loop
      vertex -2 2.60001 -4.48
      vertex -2.60001 2.60001 -12.02
      vertex -1 2.60001 -5.48
    endloop
  endfacet
  facet normal 0 -1 0
    outer loop
      vertex -2.60001 2.60001 -12.02
      vertex -2 2.60001 -4.48
      vertex -2.60001 2.60001 -2.6
    endloop
  endfacet
  facet normal 0 -1 0
    outer loop
      vertex 20.5 2.60001 -4.48
      vertex 21.1 2.60001 -2.6
      vertex 20.5 2.60001 -2.6
    endloop
  endfacet
  facet normal 0 -1 0
    outer loop
      vertex 20.5 2.60001 -4.48
      vertex 21.1 2.60001 -12.02
      vertex 21.1 2.60001 -2.6
    endloop
  endfacet
  facet normal 0 -1 0
    outer loop
      vertex 19.5 2.60001 -5.48
      vertex 21.1 2.60001 -12.02
      vertex 20.5 2.60001 -4.48
    endloop
  endfacet
  facet normal 0 -1 0
    outer loop
      vertex 21.1 2.60001 -12.02
      vertex 19.5 2.60001 -5.48
      vertex -2.60001 2.60001 -12.02
    endloop
  endfacet
  facet normal 0 1 -0
    outer loop
      vertex 21.1 -50.1 -12.02
      vertex -2.60001 -50.1 -2.6
      vertex 21.1 -50.1 -2.6
    endloop
  endfacet
  facet normal 0 1 0
    outer loop
      vertex -2.60001 -50.1 -2.6
      vertex 21.1 -50.1 -12.02
      vertex -2.60001 -50.1 -12.02
    endloop
  endfacet
  facet normal 0 0 0
    outer loop
      vertex 21.1 -50.1 -12.02
      vertex 21.1 -46.5 -12.02
      vertex 21.1 -45 -12.02
    endloop
  endfacet
  facet normal -1 0 0
    outer loop
      vertex 21.1 -50.1 -12.02
      vertex 21.1 -46.5 -2.6
      vertex 21.1 -46.5 -12.02
    endloop
  endfacet
  facet normal -1 -0 0
    outer loop
      vertex 21.1 -46.5 -2.6
      vertex 21.1 -50.1 -12.02
      vertex 21.1 -50.1 -2.6
    endloop
  endfacet
  facet normal -1 0 0
    outer loop
      vertex 21.1 2.60001 -12.02
      vertex 21.1 -34.5 -12.02
      vertex 21.1 2.60001 -2.6
    endloop
  endfacet
  facet normal 0 0 0
    outer loop
      vertex 21.1 -36 -12.02
      vertex 21.1 -34.5 -12.02
      vertex 21.1 2.60001 -12.02
    endloop
  endfacet
  facet normal -1 -0 0
    outer loop
      vertex 21.1 2.60001 -2.6
      vertex 21.1 -34.5 -12.02
      vertex 21.1 -34.5 -2.6
    endloop
  endfacet
  facet normal 0 1 0
    outer loop
      vertex 23.5 -45 -6.50653
      vertex 21.1 -45 -12.02
      vertex 21.1 -45 -6.50653
    endloop
  endfacet
  facet normal 0 1 -0
    outer loop
      vertex 23.5 -45 -12.02
      vertex 21.1 -45 -12.02
      vertex 23.5 -45 -6.50653
    endloop
  endfacet
  facet normal 0 0.499981 -0.866036
    outer loop
      vertex 21.1 -43.4372 -3.79962
      vertex 23.5 -42.0628 -3.00615
      vertex 23.5 -43.4372 -3.79962
    endloop
  endfacet
  facet normal 0 0.499981 -0.866036
    outer loop
      vertex 23.5 -42.0628 -3.00615
      vertex 21.1 -43.4372 -3.79962
      vertex 21.1 -42.0628 -3.00615
    endloop
  endfacet
  facet normal 0 -0.766066 -0.642762
    outer loop
      vertex 21.1 -36.5428 -5.01529
      vertex 23.5 -37.5628 -3.79962
      vertex 21.1 -37.5628 -3.79962
    endloop
  endfacet
  facet normal 0 -0.766066 -0.642762
    outer loop
      vertex 23.5 -37.5628 -3.79962
      vertex 21.1 -36.5428 -5.01529
      vertex 23.5 -36.5428 -5.01529
    endloop
  endfacet
  facet normal 0 -0.499981 -0.866036
    outer loop
      vertex 21.1 -38.9372 -3.00615
      vertex 23.5 -37.5628 -3.79962
      vertex 23.5 -38.9372 -3.00615
    endloop
  endfacet
  facet normal -0 -0.499981 -0.866036
    outer loop
      vertex 23.5 -37.5628 -3.79962
      vertex 21.1 -38.9372 -3.00615
      vertex 21.1 -37.5628 -3.79962
    endloop
  endfacet
  facet normal 0 0.939686 -0.342039
    outer loop
      vertex 23.5 -45 -6.50653
      vertex 21.1 -44.4572 -5.01529
      vertex 23.5 -44.4572 -5.01529
    endloop
  endfacet
  facet normal 0 0.939686 -0.342039
    outer loop
      vertex 21.1 -44.4572 -5.01529
      vertex 23.5 -45 -6.50653
      vertex 21.1 -45 -6.50653
    endloop
  endfacet
  facet normal 0 0.766066 -0.642762
    outer loop
      vertex 23.5 -44.4572 -5.01529
      vertex 21.1 -43.4372 -3.79962
      vertex 23.5 -43.4372 -3.79962
    endloop
  endfacet
  facet normal 0 0.766066 -0.642762
    outer loop
      vertex 21.1 -43.4372 -3.79962
      vertex 23.5 -44.4572 -5.01529
      vertex 21.1 -44.4572 -5.01529
    endloop
  endfacet
  facet normal 0 0.173652 -0.984807
    outer loop
      vertex 21.1 -42.0628 -3.00615
      vertex 23.5 -40.5 -2.73058
      vertex 23.5 -42.0628 -3.00615
    endloop
  endfacet
  facet normal 0 0.173652 -0.984807
    outer loop
      vertex 23.5 -40.5 -2.73058
      vertex 21.1 -42.0628 -3.00615
      vertex 21.1 -40.5 -2.73058
    endloop
  endfacet
  facet normal 0 -0.939686 -0.342039
    outer loop
      vertex 21.1 -36 -6.50653
      vertex 23.5 -36.5428 -5.01529
      vertex 21.1 -36.5428 -5.01529
    endloop
  endfacet
  facet normal 0 -0.939686 -0.342039
    outer loop
      vertex 23.5 -36.5428 -5.01529
      vertex 21.1 -36 -6.50653
      vertex 23.5 -36 -6.50653
    endloop
  endfacet
  facet normal 0 -1 0
    outer loop
      vertex 21.1 -36 -6.50653
      vertex 21.1 -36 -12.02
      vertex 23.5 -36 -6.50653
    endloop
  endfacet
  facet normal 0 -1 0
    outer loop
      vertex 21.1 -36 -12.02
      vertex 23.5 -36 -12.02
      vertex 23.5 -36 -6.50653
    endloop
  endfacet
  facet normal 0 -0.173652 -0.984807
    outer loop
      vertex 21.1 -40.5 -2.73058
      vertex 23.5 -38.9372 -3.00615
      vertex 23.5 -40.5 -2.73058
    endloop
  endfacet
  facet normal -0 -0.173652 -0.984807
    outer loop
      vertex 23.5 -38.9372 -3.00615
      vertex 21.1 -40.5 -2.73058
      vertex 21.1 -38.9372 -3.00615
    endloop
  endfacet
  facet normal 1 0 0
    outer loop
      vertex 21.1 -37.7206 -5.69532
      vertex 21.1 -36.5428 -5.01529
      vertex 21.1 -37.5628 -3.79962
    endloop
  endfacet
  facet normal 1 0 0
    outer loop
      vertex 21.1 -36.5428 -5.01529
      vertex 21.1 -37.7206 -5.69532
      vertex 21.1 -37.2906 -7.3
    endloop
  endfacet
  facet normal 1 0 0
    outer loop
      vertex 21.1 -37.5628 -3.79962
      vertex 21.1 -38.8953 -4.52062
      vertex 21.1 -37.7206 -5.69532
    endloop
  endfacet
  facet normal 1 0 0
    outer loop
      vertex 21.1 -38.9372 -3.00615
      vertex 21.1 -38.8953 -4.52062
      vertex 21.1 -37.5628 -3.79962
    endloop
  endfacet
  facet normal 1 0 0
    outer loop
      vertex 21.1 -40.5 -4.09064
      vertex 21.1 -38.9372 -3.00615
      vertex 21.1 -40.5 -2.73058
    endloop
  endfacet
  facet normal 1 0 0
    outer loop
      vertex 21.1 -38.9372 -3.00615
      vertex 21.1 -40.5 -4.09064
      vertex 21.1 -38.8953 -4.52062
    endloop
  endfacet
  facet normal 1 -0 0
    outer loop
      vertex 21.1 -42.0628 -3.00615
      vertex 21.1 -40.5 -4.09064
      vertex 21.1 -40.5 -2.73058
    endloop
  endfacet
  facet normal 1 0 0
    outer loop
      vertex 21.1 -42.0628 -3.00615
      vertex 21.1 -42.1047 -4.52062
      vertex 21.1 -40.5 -4.09064
    endloop
  endfacet
  facet normal 1 -0 0
    outer loop
      vertex 21.1 -43.4372 -3.79962
      vertex 21.1 -42.1047 -4.52062
      vertex 21.1 -42.0628 -3.00615
    endloop
  endfacet
  facet normal 1 0 0
    outer loop
      vertex 21.1 -42.1047 -4.52062
      vertex 21.1 -43.4372 -3.79962
      vertex 21.1 -43.2794 -5.69532
    endloop
  endfacet
  facet normal 1 -0 0
    outer loop
      vertex 21.1 -44.4572 -5.01529
      vertex 21.1 -43.2794 -5.69532
      vertex 21.1 -43.4372 -3.79962
    endloop
  endfacet
  facet normal 1 0 0
    outer loop
      vertex 21.1 -45 -6.50653
      vertex 21.1 -43.2794 -5.69532
      vertex 21.1 -44.4572 -5.01529
    endloop
  endfacet
  facet normal 1 0 0
    outer loop
      vertex 21.1 -37.2906 -7.3
      vertex 21.1 -36 -6.50653
      vertex 21.1 -36.5428 -5.01529
    endloop
  endfacet
  facet normal 1 0 0
    outer loop
      vertex 21.1 -37.7206 -8.90468
      vertex 21.1 -36 -6.50653
      vertex 21.1 -37.2906 -7.3
    endloop
  endfacet
  facet normal 1 0 0
    outer loop
      vertex 21.1 -36 -6.50653
      vertex 21.1 -37.7206 -8.90468
      vertex 21.1 -36 -12.02
    endloop
  endfacet
  facet normal 1 -0 0
    outer loop
      vertex 21.1 -38.8953 -10.0794
      vertex 21.1 -36 -12.02
      vertex 21.1 -37.7206 -8.90468
    endloop
  endfacet
  facet normal 1 -0 0
    outer loop
      vertex 21.1 -40.5 -10.5094
      vertex 21.1 -36 -12.02
      vertex 21.1 -38.8953 -10.0794
    endloop
  endfacet
  facet normal 1 0 0
    outer loop
      vertex 21.1 -45 -12.02
      vertex 21.1 -40.5 -10.5094
      vertex 21.1 -42.1047 -10.0794
    endloop
  endfacet
  facet normal 1 0 0
    outer loop
      vertex 21.1 -43.2794 -5.69532
      vertex 21.1 -45 -6.50653
      vertex 21.1 -43.7094 -7.3
    endloop
  endfacet
  facet normal 1 0 0
    outer loop
      vertex 21.1 -43.7094 -7.3
      vertex 21.1 -45 -6.50653
      vertex 21.1 -43.2794 -8.90468
    endloop
  endfacet
  facet normal 1 0 0
    outer loop
      vertex 21.1 -40.5 -10.5094
      vertex 21.1 -45 -12.02
      vertex 21.1 -36 -12.02
    endloop
  endfacet
  facet normal 1 0 0
    outer loop
      vertex 21.1 -43.2794 -8.90468
      vertex 21.1 -45 -12.02
      vertex 21.1 -42.1047 -10.0794
    endloop
  endfacet
  facet normal 1 0 0
    outer loop
      vertex 21.1 -45 -12.02
      vertex 21.1 -43.2794 -8.90468
      vertex 21.1 -45 -6.50653
    endloop
  endfacet
  facet normal 0 -0.25882 -0.965926
    outer loop
      vertex 19.5 -40.5 -4.09064
      vertex 21.1 -38.8953 -4.52062
      vertex 21.1 -40.5 -4.09064
    endloop
  endfacet
  facet normal -0 -0.25882 -0.965926
    outer loop
      vertex 21.1 -38.8953 -4.52062
      vertex 19.5 -40.5 -4.09064
      vertex 19.5 -38.8953 -4.52062
    endloop
  endfacet
  facet normal 0 -0.258831 0.965923
    outer loop
      vertex 19.5 -38.8953 -10.0794
      vertex 21.1 -40.5 -10.5094
      vertex 21.1 -38.8953 -10.0794
    endloop
  endfacet
  facet normal 0 -0.258831 0.965923
    outer loop
      vertex 21.1 -40.5 -10.5094
      vertex 19.5 -38.8953 -10.0794
      vertex 19.5 -40.5 -10.5094
    endloop
  endfacet
  facet normal 0 -0.707107 -0.707107
    outer loop
      vertex 19.5 -38.8953 -4.52062
      vertex 21.1 -37.7206 -5.69532
      vertex 21.1 -38.8953 -4.52062
    endloop
  endfacet
  facet normal -0 -0.707107 -0.707107
    outer loop
      vertex 21.1 -37.7206 -5.69532
      vertex 19.5 -38.8953 -4.52062
      vertex 19.5 -37.7206 -5.69532
    endloop
  endfacet
  facet normal 0 0.25882 -0.965926
    outer loop
      vertex 19.5 -42.1047 -4.52062
      vertex 21.1 -40.5 -4.09064
      vertex 21.1 -42.1047 -4.52062
    endloop
  endfacet
  facet normal 0 0.25882 -0.965926
    outer loop
      vertex 21.1 -40.5 -4.09064
      vertex 19.5 -42.1047 -4.52062
      vertex 19.5 -40.5 -4.09064
    endloop
  endfacet
  facet normal 0 0.707107 -0.707107
    outer loop
      vertex 19.5 -43.2794 -5.69532
      vertex 21.1 -42.1047 -4.52062
      vertex 21.1 -43.2794 -5.69532
    endloop
  endfacet
  facet normal 0 0.707107 -0.707107
    outer loop
      vertex 21.1 -42.1047 -4.52062
      vertex 19.5 -43.2794 -5.69532
      vertex 19.5 -42.1047 -4.52062
    endloop
  endfacet
  facet normal 0 -0.965922 -0.258834
    outer loop
      vertex 19.5 -37.2906 -7.3
      vertex 21.1 -37.7206 -5.69532
      vertex 19.5 -37.7206 -5.69532
    endloop
  endfacet
  facet normal 0 -0.965922 -0.258834
    outer loop
      vertex 21.1 -37.7206 -5.69532
      vertex 19.5 -37.2906 -7.3
      vertex 21.1 -37.2906 -7.3
    endloop
  endfacet
  facet normal -0 0.707113 0.707101
    outer loop
      vertex 19.5 -42.1047 -10.0794
      vertex 21.1 -43.2794 -8.90468
      vertex 21.1 -42.1047 -10.0794
    endloop
  endfacet
  facet normal 0 0.707113 0.707101
    outer loop
      vertex 21.1 -43.2794 -8.90468
      vertex 19.5 -42.1047 -10.0794
      vertex 19.5 -43.2794 -8.90468
    endloop
  endfacet
  facet normal 0 0.965922 -0.258834
    outer loop
      vertex 21.1 -43.7094 -7.3
      vertex 19.5 -43.2794 -5.69532
      vertex 21.1 -43.2794 -5.69532
    endloop
  endfacet
  facet normal 0 0.965922 -0.258834
    outer loop
      vertex 19.5 -43.2794 -5.69532
      vertex 21.1 -43.7094 -7.3
      vertex 19.5 -43.7094 -7.3
    endloop
  endfacet
  facet normal 0 0.965922 0.258834
    outer loop
      vertex 21.1 -43.2794 -8.90468
      vertex 19.5 -43.7094 -7.3
      vertex 21.1 -43.7094 -7.3
    endloop
  endfacet
  facet normal 0 0.965922 0.258834
    outer loop
      vertex 19.5 -43.7094 -7.3
      vertex 21.1 -43.2794 -8.90468
      vertex 19.5 -43.2794 -8.90468
    endloop
  endfacet
  facet normal -0 0.258831 0.965923
    outer loop
      vertex 19.5 -40.5 -10.5094
      vertex 21.1 -42.1047 -10.0794
      vertex 21.1 -40.5 -10.5094
    endloop
  endfacet
  facet normal 0 0.258831 0.965923
    outer loop
      vertex 21.1 -42.1047 -10.0794
      vertex 19.5 -40.5 -10.5094
      vertex 19.5 -42.1047 -10.0794
    endloop
  endfacet
  facet normal 0 -0.965922 0.258834
    outer loop
      vertex 19.5 -37.7206 -8.90468
      vertex 21.1 -37.2906 -7.3
      vertex 19.5 -37.2906 -7.3
    endloop
  endfacet
  facet normal 0 -0.965922 0.258834
    outer loop
      vertex 21.1 -37.2906 -7.3
      vertex 19.5 -37.7206 -8.90468
      vertex 21.1 -37.7206 -8.90468
    endloop
  endfacet
  facet normal 0 -0.707113 0.707101
    outer loop
      vertex 19.5 -37.7206 -8.90468
      vertex 21.1 -38.8953 -10.0794
      vertex 21.1 -37.7206 -8.90468
    endloop
  endfacet
  facet normal 0 -0.707113 0.707101
    outer loop
      vertex 21.1 -38.8953 -10.0794
      vertex 19.5 -37.7206 -8.90468
      vertex 19.5 -38.8953 -10.0794
    endloop
  endfacet
  facet normal -1 0 0
    outer loop
      vertex 13.35 3 -3
      vertex 13.35 4.99452 -1.02
      vertex 13.35 4.99452 -3
    endloop
  endfacet
  facet normal -1 -0 0
    outer loop
      vertex 13.35 4.99452 -1.02
      vertex 13.35 3 -3
      vertex 13.35 4 -0.0200005
    endloop
  endfacet
  facet normal -1 -0 0
    outer loop
      vertex 13.35 4 -0.0200005
      vertex 13.35 3 -3
      vertex 13.35 3 -0.0200005
    endloop
  endfacet
  facet normal -0 0 1
    outer loop
      vertex 5.15 4.99452 -3
      vertex 13.35 3 -3
      vertex 13.35 4.99452 -3
    endloop
  endfacet
  facet normal 0 0 1
    outer loop
      vertex 13.35 3 -3
      vertex 5.15 4.99452 -3
      vertex 5.15 3 -3
    endloop
  endfacet
  facet normal 1 0 0
    outer loop
      vertex 5.15 3 -3
      vertex 5.15 4.99452 -1.02
      vertex 5.15 4 -0.0200005
    endloop
  endfacet
  facet normal 1 0 0
    outer loop
      vertex 5.15 3 -3
      vertex 5.15 4 -0.0200005
      vertex 5.15 3 -0.0200005
    endloop
  endfacet
  facet normal 1 0 0
    outer loop
      vertex 5.15 4.99452 -1.02
      vertex 5.15 3 -3
      vertex 5.15 4.99452 -3
    endloop
  endfacet
  facet normal 0 0 1
    outer loop
      vertex 18.5 3 -4
      vertex 15.7 2.5 -4
      vertex 18.5 2.5 -4
    endloop
  endfacet
  facet normal 0 0 1
    outer loop
      vertex 15.7 2.5 -4
      vertex 2.79999 2.5 -4
      vertex 15.7 -31 -4
    endloop
  endfacet
  facet normal 0 0 1
    outer loop
      vertex 18.5 3 -4
      vertex 2.79999 2.5 -4
      vertex 15.7 2.5 -4
    endloop
  endfacet
  facet normal -0 0 1
    outer loop
      vertex 0 3 -4
      vertex 2.79999 2.5 -4
      vertex 18.5 3 -4
    endloop
  endfacet
  facet normal 0 0 1
    outer loop
      vertex 2.79999 2.5 -4
      vertex 0 3 -4
      vertex 0 2.5 -4
    endloop
  endfacet
  facet normal 0 0 1
    outer loop
      vertex 15.7 -31 -4
      vertex 2.79999 2.5 -4
      vertex 2.79999 -31 -4
    endloop
  endfacet
  facet normal 0 -1 0
    outer loop
      vertex 15.7 2.5 -5.48
      vertex 18.5 2.5 -4
      vertex 15.7 2.5 -4
    endloop
  endfacet
  facet normal 0 -1 -0
    outer loop
      vertex 18.5 2.5 -4
      vertex 15.7 2.5 -5.48
      vertex 18.5 2.5 -5.48
    endloop
  endfacet
  facet normal 1 -0 0
    outer loop
      vertex 15.7 -31 -4
      vertex 15.7 2.5 -5.48
      vertex 15.7 2.5 -4
    endloop
  endfacet
  facet normal 1 0 0
    outer loop
      vertex 15.7 2.5 -5.48
      vertex 15.7 -31 -4
      vertex 15.7 -31 -5.48
    endloop
  endfacet
  facet normal 0 1 0
    outer loop
      vertex 18.5 -31 -0.0200005
      vertex 15.7 -31 -4
      vertex 0 -31 -0.0200005
    endloop
  endfacet
  facet normal 0 1 -0
    outer loop
      vertex 18.5 -31 -5.48
      vertex 15.7 -31 -4
      vertex 18.5 -31 -0.0200005
    endloop
  endfacet
  facet normal 0 1 0
    outer loop
      vertex 15.7 -31 -4
      vertex 18.5 -31 -5.48
      vertex 15.7 -31 -5.48
    endloop
  endfacet
  facet normal 0 1 -0
    outer loop
      vertex 2.79999 -31 -4
      vertex 0 -31 -0.0200005
      vertex 15.7 -31 -4
    endloop
  endfacet
  facet normal 0 1 0
    outer loop
      vertex 0 -31 -5.48
      vertex 2.79999 -31 -4
      vertex 2.79999 -31 -5.48
    endloop
  endfacet
  facet normal 0 1 0
    outer loop
      vertex 2.79999 -31 -4
      vertex 0 -31 -5.48
      vertex 0 -31 -0.0200005
    endloop
  endfacet
  facet normal -1 0 0
    outer loop
      vertex 18.5 2.5 -5.48
      vertex 18.5 -31 -5.48
      vertex 18.5 2.5 -4
    endloop
  endfacet
  facet normal -1 0 0
    outer loop
      vertex 18.5 2.5 -4
      vertex 18.5 3 -0.0200005
      vertex 18.5 3 -4
    endloop
  endfacet
  facet normal -1 0 0
    outer loop
      vertex 18.5 -31 -0.0200005
      vertex 18.5 2.5 -4
      vertex 18.5 -31 -5.48
    endloop
  endfacet
  facet normal -1 0 0
    outer loop
      vertex 18.5 2.5 -4
      vertex 18.5 -31 -0.0200005
      vertex 18.5 3 -0.0200005
    endloop
  endfacet
  facet normal 1 0 0
    outer loop
      vertex 0 3 -0.0200005
      vertex 0 2.5 -4
      vertex 0 3 -4
    endloop
  endfacet
  facet normal 1 -0 0
    outer loop
      vertex 0 -31 -0.0200005
      vertex 0 2.5 -4
      vertex 0 3 -0.0200005
    endloop
  endfacet
  facet normal 1 0 0
    outer loop
      vertex 0 -31 -5.48
      vertex 0 2.5 -4
      vertex 0 -31 -0.0200005
    endloop
  endfacet
  facet normal 1 0 0
    outer loop
      vertex 0 2.5 -4
      vertex 0 -31 -5.48
      vertex 0 2.5 -5.48
    endloop
  endfacet
  facet normal -1 0 0
    outer loop
      vertex 2.79999 -31 -5.48
      vertex 2.79999 2.5 -4
      vertex 2.79999 2.5 -5.48
    endloop
  endfacet
  facet normal -1 -0 0
    outer loop
      vertex 2.79999 2.5 -4
      vertex 2.79999 -31 -5.48
      vertex 2.79999 -31 -4
    endloop
  endfacet
  facet normal 0 -1 0
    outer loop
      vertex 0 2.5 -5.48
      vertex 2.79999 2.5 -4
      vertex 0 2.5 -4
    endloop
  endfacet
  facet normal 0 -1 -0
    outer loop
      vertex 2.79999 2.5 -4
      vertex 0 2.5 -5.48
      vertex 2.79999 2.5 -5.48
    endloop
  endfacet
  facet normal 0 -1 0
    outer loop
      vertex 0 3 -0.0200005
      vertex 5.15 3 -3
      vertex 5.15 3 -0.0200005
    endloop
  endfacet
  facet normal 0 -1 -0
    outer loop
      vertex 5.15 3 -3
      vertex 0 3 -4
      vertex 13.35 3 -3
    endloop
  endfacet
  facet normal 0 -1 0
    outer loop
      vertex 0 3 -4
      vertex 5.15 3 -3
      vertex 0 3 -0.0200005
    endloop
  endfacet
  facet normal 0 -1 0
    outer loop
      vertex 13.35 3 -3
      vertex 18.5 3 -0.0200005
      vertex 13.35 3 -0.0200005
    endloop
  endfacet
  facet normal 0 -1 0
    outer loop
      vertex 13.35 3 -3
      vertex 18.5 3 -4
      vertex 18.5 3 -0.0200005
    endloop
  endfacet
  facet normal 0 -1 0
    outer loop
      vertex 18.5 3 -4
      vertex 13.35 3 -3
      vertex 0 3 -4
    endloop
  endfacet
endsolid OpenSCAD_Model
